<?xml version="1.0" standalone="no"?>
<!DOCTYPE svg PUBLIC "-//W3C//DTD SVG 20010904//EN"
 "http://www.w3.org/TR/2001/REC-SVG-20010904/DTD/svg10.dtd">
<svg version="1.0" xmlns="http://www.w3.org/2000/svg"
 width="512.000000pt" height="512.000000pt" viewBox="0 0 512.000000 512.000000"
 preserveAspectRatio="xMidYMid meet">

<g transform="translate(0.000000,512.000000) scale(0.100000,-0.100000)"
fill="#000000" stroke="none">
<path d="M712 5109 c-175 -29 -320 -107 -457 -244 -111 -111 -166 -198 -209
-325 -41 -125 -46 -184 -46 -600 0 -352 2 -405 20 -489 55 -270 249 -504 505
-610 155 -65 166 -66 645 -66 417 0 439 1 522 22 318 81 550 313 631 632 21
82 22 105 22 526 -1 424 -2 443 -23 520 -90 323 -339 560 -655 626 -82 17
-136 19 -497 18 -223 -1 -429 -5 -458 -10z m904 -434 c117 -34 229 -138 277
-257 21 -51 22 -70 25 -433 2 -259 0 -399 -8 -440 -31 -161 -167 -300 -328
-334 -34 -7 -185 -11 -415 -11 -395 0 -437 5 -527 57 -68 40 -133 112 -171
188 l-34 70 0 430 0 430 32 67 c53 113 138 189 258 230 44 15 97 17 446 18
321 0 405 -3 445 -15z"/>
<path d="M3450 5101 c-316 -68 -563 -305 -652 -626 -21 -77 -22 -96 -23 -520
0 -423 1 -443 22 -527 81 -318 313 -550 632 -631 82 -21 105 -22 526 -22 424
1 443 2 520 23 260 72 454 235 564 474 75 162 76 167 76 678 0 440 -1 457 -22
532 -46 158 -116 278 -225 386 -113 112 -222 176 -379 223 -71 22 -91 23 -514
26 -395 2 -449 0 -525 -16z m1001 -453 c93 -46 158 -112 202 -206 l32 -67 0
-430 0 -430 -34 -69 c-57 -117 -156 -199 -276 -230 -86 -23 -763 -23 -850 -1
-159 42 -280 167 -315 325 -8 39 -11 167 -8 440 3 368 4 387 25 438 47 117
143 208 263 252 52 19 78 20 471 17 l415 -2 75 -37z"/>
<path d="M742 2340 c-363 -50 -659 -330 -726 -689 -13 -67 -16 -160 -16 -475
0 -412 5 -472 46 -596 43 -127 98 -214 209 -325 111 -111 197 -166 326 -209
131 -44 189 -48 636 -44 355 4 427 7 478 21 319 90 539 309 628 625 20 73 21
97 22 517 0 422 -1 443 -22 527 -82 320 -323 559 -642 635 -53 12 -143 16
-471 18 -223 2 -433 -1 -468 -5z m854 -434 c155 -41 280 -171 313 -324 7 -34
11 -185 11 -415 0 -395 -5 -437 -57 -527 -40 -68 -112 -133 -188 -171 l-70
-34 -430 0 -430 0 -67 32 c-94 44 -160 109 -206 202 l-37 75 0 431 0 430 34
70 c57 114 155 198 271 229 78 21 780 22 856 2z"/>
<path d="M3518 2340 c-363 -56 -631 -297 -721 -648 -21 -84 -22 -104 -22 -527
1 -424 2 -443 23 -520 92 -331 355 -574 680 -630 79 -14 161 -16 515 -13 399
4 426 5 494 26 156 47 276 118 380 224 111 112 179 226 224 378 22 72 23 94
27 497 3 354 1 436 -13 515 -46 268 -227 504 -476 623 -159 75 -185 78 -644
81 -225 1 -436 -2 -467 -6z m857 -436 c120 -31 218 -113 276 -229 l34 -70 0
-430 0 -430 -32 -67 c-44 -94 -109 -160 -202 -206 l-75 -37 -430 0 -431 0 -69
34 c-117 57 -199 156 -230 276 -22 81 -23 772 -2 850 39 147 146 258 294 306
51 16 98 18 432 18 309 1 386 -2 435 -15z"/>
</g>
</svg>
