<?xml version="1.0" encoding="UTF-8"?>
<svg version="1.1" xmlns="http://www.w3.org/2000/svg" width="512" height="512">
<path d="M0 0 C1.30677352 -0.00367669 2.61354704 -0.00735338 3.95991975 -0.01114148 C7.57680035 -0.0211172 11.19366437 -0.02487112 14.81055677 -0.02753079 C18.71610867 -0.0314472 22.62164759 -0.04102474 26.52719116 -0.04974365 C35.95567097 -0.06947321 45.38415179 -0.07957105 54.81264707 -0.08847144 C59.26056946 -0.09286119 63.70849067 -0.09822631 68.15641212 -0.10346031 C82.95689617 -0.12047114 97.7573795 -0.13496223 112.55787182 -0.14220905 C116.39562163 -0.14411873 120.23337143 -0.14603909 124.07112122 -0.147995 C125.02489445 -0.14847874 125.97866769 -0.14896248 126.96134315 -0.14946087 C142.38948924 -0.15774969 157.81755752 -0.18306781 173.24566969 -0.21557567 C189.11136352 -0.24873089 204.97701792 -0.26666554 220.84274656 -0.26985329 C229.74011488 -0.27201087 238.63736982 -0.28064827 247.53470421 -0.30631447 C255.11706493 -0.32813764 262.69928471 -0.33601539 270.28167327 -0.32634769 C274.14244288 -0.32183597 278.00292242 -0.32350372 281.86365128 -0.34310913 C314.56767619 -0.49976799 340.79782055 4.3574756 367.06843567 25.14717102 C367.72714661 25.6499054 368.38585754 26.15263977 369.06452942 26.67060852 C374.56868509 31.06884838 378.78635479 36.59265686 383.06843567 42.14717102 C384.00042786 43.35566711 384.00042786 43.35566711 384.95124817 44.58857727 C397.6593024 61.88406812 404.39087833 82.68496376 404.34259033 104.06607056 C404.34782701 105.2276939 404.35306369 106.38931724 404.35845906 107.58614129 C404.3707959 110.78389433 404.37430449 113.98151015 404.37386215 117.17928231 C404.37552039 120.63900165 404.38860583 124.0986819 404.40005493 127.55838013 C404.42283018 135.11267558 404.43081803 142.6669428 404.43588138 150.22126794 C404.43914828 154.94827898 404.44567686 159.67528197 404.45288277 164.40228844 C404.47244193 177.51810218 404.48884915 190.63390847 404.4917593 203.74973774 C404.49194687 204.58784054 404.49213444 205.42594335 404.49232769 206.28944321 C404.49269392 207.98813101 404.49305762 209.68681881 404.49341881 211.38550661 C404.49360162 212.22861612 404.49378443 213.07172563 404.49397278 213.94038391 C404.4942436 215.20661235 404.4942436 215.20661235 404.4945199 216.49842115 C404.49805592 230.15390648 404.52504549 243.80923356 404.56247067 257.46466408 C404.60068349 271.52131472 404.61991774 285.57788713 404.62021881 299.6345908 C404.62080061 307.51195925 404.6291112 315.38913906 404.65821648 323.26645851 C404.68290515 329.97882515 404.68989713 336.69093443 404.67496895 343.40333436 C404.66786934 346.81888207 404.67115067 350.23351615 404.69137955 353.64907074 C404.80725319 374.501735 403.04677867 393.52093075 393.06843567 412.14717102 C392.60695129 413.08560852 392.14546692 414.02404602 391.66999817 414.99092102 C388.01914603 422.17160257 383.29768433 428.05455673 378.06843567 434.14717102 C377.28468567 435.17842102 376.50093567 436.20967102 375.69343567 437.27217102 C359.01121725 455.54317214 333.64704938 467.86124039 309.06843567 470.14717102 C304.75797841 470.29769663 300.44963401 470.29499439 296.13687134 470.29434204 C294.17671106 470.29985707 294.17671106 470.29985707 292.17695159 470.30548352 C288.56007098 470.31545924 284.94320697 470.31921316 281.32631457 470.32187283 C277.42076267 470.32578924 273.51522375 470.33536678 269.60968018 470.34408569 C260.18120037 470.36381525 250.75271954 470.37391309 241.32422426 470.38281348 C236.87630188 470.38720323 232.42838067 470.39256835 227.98045921 470.39780235 C213.17997517 470.41481318 198.37949184 470.42930427 183.57899952 470.43655109 C179.74124971 470.43846077 175.90349991 470.44038113 172.06575012 470.44233704 C171.11197688 470.44282078 170.15820365 470.44330452 169.17552819 470.44380292 C153.74738209 470.45209173 138.31931382 470.47740985 122.89120165 470.50991771 C107.02550782 470.54307293 91.15985341 470.56100759 75.29412478 470.56419533 C66.39675645 470.56635291 57.49950152 470.57499031 48.60216713 470.60065651 C41.01980641 470.62247968 33.43758663 470.63035743 25.85519806 470.62068973 C21.99442846 470.61617801 18.13394892 470.61784576 14.27322006 470.63745117 C-18.43080486 470.79411003 -44.66094921 465.93686644 -70.93156433 445.14717102 C-71.91963074 444.39306946 -71.91963074 444.39306946 -72.92765808 443.62373352 C-78.43181375 439.22549366 -82.64948345 433.70168518 -86.93156433 428.14717102 C-87.55289246 427.34150696 -88.17422058 426.5358429 -88.81437683 425.70576477 C-101.52243106 408.41027392 -108.254007 387.60937828 -108.20571899 366.22827148 C-108.21357401 364.48583647 -108.21357401 364.48583647 -108.22158772 362.70820075 C-108.23392456 359.51044771 -108.23743315 356.31283189 -108.23699081 353.11505973 C-108.23864905 349.65534039 -108.2517345 346.19566014 -108.26318359 342.73596191 C-108.28595884 335.18166646 -108.2939467 327.62739924 -108.29901004 320.0730741 C-108.30227694 315.34606306 -108.30880552 310.61906008 -108.31601143 305.8920536 C-108.33557059 292.77623986 -108.35197781 279.66043357 -108.35488796 266.5446043 C-108.35507553 265.7065015 -108.3552631 264.86839869 -108.35545636 264.00489883 C-108.35582258 262.30621103 -108.35618628 260.60752323 -108.35654747 258.90883543 C-108.35673028 258.06572592 -108.35691309 257.22261641 -108.35710144 256.35395813 C-108.35737226 255.08772969 -108.35737226 255.08772969 -108.35764856 253.79592089 C-108.36118458 240.14043556 -108.38817415 226.48510848 -108.42559933 212.82967796 C-108.46381215 198.77302732 -108.4830464 184.71645491 -108.48334748 170.65975124 C-108.48392927 162.78238279 -108.49223986 154.90520298 -108.52134514 147.02788353 C-108.54603381 140.31551689 -108.55302579 133.60340761 -108.53809761 126.89100768 C-108.530998 123.47545997 -108.53427933 120.06082589 -108.55450821 116.6452713 C-108.67038185 95.79260704 -106.90990733 76.77341129 -96.93156433 58.14717102 C-96.47007996 57.20873352 -96.00859558 56.27029602 -95.53312683 55.30342102 C-91.88227469 48.12273947 -87.16081299 42.23978531 -81.93156433 36.14717102 C-81.14781433 35.11592102 -80.36406433 34.08467102 -79.55656433 33.02217102 C-59.16374682 10.68718041 -29.6564 -0.0044858 0 0 Z M-49.35343933 65.06123352 C-61.00853034 78.43947692 -65.0868417 94.72781279 -65.07200623 112.06906128 C-65.07497735 113.15955636 -65.07794847 114.25005145 -65.08100963 115.37359184 C-65.08967191 119.0228168 -65.09120279 122.67200886 -65.09269714 126.32124329 C-65.0973271 128.93992177 -65.102352 131.55859958 -65.10774231 134.17727661 C-65.12129497 141.28914385 -65.1273457 148.40100543 -65.13175297 155.51288342 C-65.13452087 159.9589069 -65.13875924 164.40492822 -65.14325714 168.85095024 C-65.15544634 181.17573313 -65.16574599 193.50051429 -65.16913223 205.82530308 C-65.1693518 206.61335518 -65.16957136 207.40140728 -65.16979758 208.21333974 C-65.17001586 209.00321267 -65.17023414 209.7930856 -65.17045903 210.60689408 C-65.17090249 212.20731517 -65.17134905 213.80773626 -65.17179871 215.40815735 C-65.17202014 216.20201125 -65.17224157 216.99586515 -65.17246971 217.81377523 C-65.17641445 230.66581966 -65.19386014 243.51780728 -65.21715823 256.36982978 C-65.24091906 269.58448626 -65.25333625 282.79911429 -65.25450015 296.01379246 C-65.25541431 303.42535972 -65.26110101 310.83685296 -65.27931976 318.24839973 C-65.29478485 324.56170972 -65.29980372 330.87492282 -65.29158166 337.18824816 C-65.28769751 340.40421272 -65.29015484 343.61994348 -65.30263901 346.83589172 C-65.54794502 369.82483181 -65.54794502 369.82483181 -58.30656433 391.39717102 C-57.96174011 392.06482483 -57.61691589 392.73247864 -57.26164246 393.42036438 C-53.99473323 399.48570101 -49.91130175 404.38855871 -44.93156433 409.14717102 C-44.31925964 409.77881165 -43.70695496 410.41045227 -43.07609558 411.06123352 C-28.52629747 425.14568628 -8.68426266 427.30730442 10.5592041 427.28088379 C11.78223057 427.28314935 13.00525704 427.2854149 14.26534492 427.28774911 C17.63428215 427.2929575 21.0031657 427.29373861 24.3721031 427.29255474 C28.01574223 427.29234964 31.65937358 427.29787987 35.30300903 427.3026123 C42.43213342 427.31089598 49.56124953 427.31366611 56.69037833 427.31422468 C62.48949752 427.31470095 68.28861399 427.3167612 74.08773232 427.31992531 C90.55392579 427.32872581 107.02011276 427.33334565 123.4863086 427.33259483 C124.81606428 427.3325349 124.81606428 427.3325349 126.17268372 427.33247375 C127.06027848 427.33243287 127.94787324 427.33239199 128.86236481 427.33234987 C143.23962821 427.33194362 157.61686539 427.34150954 171.99412122 427.35561212 C186.78072436 427.37000099 201.56731473 427.37688092 216.35392505 427.37601835 C224.64574817 427.37568723 232.9375438 427.37839658 241.22936058 427.3891964 C248.29024736 427.39833452 255.35109419 427.4004496 262.41198435 427.39368697 C266.00878836 427.39043835 269.60551589 427.39030452 273.20231247 427.39904022 C299.46139545 427.45861193 322.45470379 427.10136828 342.75593567 408.08467102 C356.08717412 394.18209377 361.22508922 377.17514858 361.20887756 358.22528076 C361.21184869 357.13478568 361.21481981 356.04429059 361.21788096 354.9207502 C361.22654324 351.27152524 361.22807413 347.62233318 361.22956848 343.97309875 C361.23419843 341.35442027 361.23922333 338.73574246 361.24461365 336.11706543 C361.25816631 329.00519819 361.26421704 321.89333662 361.26862431 314.78145862 C361.27139221 310.33543514 361.27563058 305.88941382 361.28012848 301.4433918 C361.29231768 289.11860891 361.30261733 276.79382775 361.30600357 264.46903896 C361.30622314 263.68098686 361.3064427 262.89293476 361.30666892 262.0810023 C361.3068872 261.29112937 361.30710548 260.50125644 361.30733037 259.68744797 C361.30777383 258.08702687 361.30822039 256.48660578 361.30867004 254.88618469 C361.30889147 254.09233079 361.3091129 253.29847689 361.30934104 252.48056681 C361.31328579 239.62852238 361.33073148 226.77653476 361.35402957 213.92451226 C361.3777904 200.70985578 361.39020759 187.49522776 361.39137149 174.28054959 C361.39228565 166.86898232 361.39797235 159.45748908 361.4161911 152.04594231 C361.43165619 145.73263232 361.43667506 139.41941923 361.428453 133.10609388 C361.42456885 129.89012932 361.42702618 126.67439856 361.43951035 123.45845032 C361.68481635 100.46951023 361.68481635 100.46951023 354.44343567 78.89717102 C354.09861145 78.22951721 353.75378723 77.5618634 353.39851379 76.87397766 C350.13160457 70.80864103 346.04817309 65.90578333 341.06843567 61.14717102 C340.45613098 60.5155304 339.84382629 59.88388977 339.21296692 59.23310852 C324.6631688 45.14865576 304.821134 42.98703762 285.57766724 43.01345825 C284.35464077 43.0111927 283.1316143 43.00892714 281.87152642 43.00659293 C278.50258919 43.00138454 275.13370563 43.00060343 271.76476824 43.0017873 C268.1211291 43.0019924 264.47749776 42.99646217 260.8338623 42.99172974 C253.70473792 42.98344606 246.5756218 42.98067593 239.44649301 42.98011736 C233.64737382 42.97964109 227.84825735 42.97758084 222.04913902 42.97441673 C205.58294555 42.96561623 189.11675858 42.96099639 172.65056274 42.96174721 C171.76405895 42.96178716 170.87755516 42.96182712 169.96418762 42.96186829 C169.07659286 42.96190917 168.1889981 42.96195005 167.27450653 42.96199217 C152.89724313 42.96239842 138.52000594 42.9528325 124.14275012 42.93872992 C109.35614698 42.92434105 94.5695566 42.91746112 79.78294629 42.9183237 C71.49112317 42.91865481 63.19932754 42.91594546 54.90751076 42.90514565 C47.84662398 42.89600752 40.78577714 42.89389244 33.72488699 42.90065507 C30.12808298 42.90390369 26.53135545 42.90403752 22.93455887 42.89530182 C-4.89459473 42.83216823 -28.82915088 43.65733271 -49.35343933 65.06123352 Z " fill="#000000" transform="translate(107.93156433105469,20.852828979492188)"/>
<path d="M0 0 C1.53498202 -0.00407014 3.06996111 -0.0094145 4.60493469 -0.01593018 C8.75576585 -0.029557 12.90637224 -0.02432439 17.05720711 -0.01479292 C21.41098744 -0.00717222 25.76474915 -0.01424861 30.11853027 -0.01895142 C37.42850177 -0.02440196 44.73838219 -0.01723578 52.04833984 -0.00292969 C60.48718296 0.01339549 68.92580859 0.00810649 77.36464643 -0.0084089 C84.62349029 -0.02204377 91.88226886 -0.02393366 99.14112139 -0.0160929 C103.47063795 -0.01142737 107.80005246 -0.01076061 112.12956238 -0.02070236 C116.20084448 -0.02939894 120.27184749 -0.02330128 124.34309959 -0.00601959 C125.83296941 -0.00206907 127.32286291 -0.00316411 128.81272316 -0.00980759 C137.72116192 -0.04585455 144.83936444 0.22718966 152.55664062 5.13818359 C157.46372286 10.04526583 159.60039451 15.2944919 160.05664062 22.13818359 C159.95780134 28.0355944 158.28670991 32.6281012 154.49414062 37.13818359 C147.98149607 42.5906302 143.8223812 44.50393429 135.43258667 44.53535461 C134.12051743 44.54250992 132.80844818 44.54966522 131.45661926 44.55703735 C130.00412011 44.55987747 128.5516207 44.56258922 127.09912109 44.56518555 C125.56797634 44.57145279 124.03683311 44.57809983 122.50569153 44.58509827 C117.47841445 44.60611353 112.45113716 44.61649967 107.42382812 44.62646484 C105.69053252 44.63051363 103.95723708 44.63463059 102.2239418 44.63881493 C94.0782106 44.65786262 85.93248842 44.6720934 77.78673923 44.6804269 C68.39762869 44.690192 59.00875436 44.71649425 49.61972702 44.75692779 C42.35415543 44.78713801 35.08865135 44.80190049 27.82301819 44.80520791 C23.48771878 44.80755318 19.15267182 44.81644502 14.81744003 44.84166908 C10.73469442 44.86504033 6.65236585 44.86914697 2.56957054 44.8589077 C1.07730022 44.85841439 -0.41499126 44.86467408 -1.90719795 44.87846375 C-10.87832675 44.95667772 -20.09826369 45.00432411 -27.12506294 38.63806629 C-32.54998668 32.80120901 -33.65979939 27.22769458 -33.50585938 19.39599609 C-32.88504485 13.42065633 -30.58577457 9.81224459 -26.44335938 5.57568359 C-17.94364271 -0.14527955 -9.8853648 -0.04408008 0 0 Z " fill="#000000" transform="translate(246.193359375,233.61181640625)"/>
<path d="M0 0 C0.65607953 -0.00453111 1.31215906 -0.00906223 1.98811978 -0.01373065 C4.178935 -0.02635582 6.36950102 -0.02475553 8.56034851 -0.02310181 C10.13429584 -0.02908828 11.70824024 -0.0358941 13.28218079 -0.04345703 C17.55296254 -0.06111305 21.82366413 -0.06581227 26.09447885 -0.0670886 C28.764514 -0.06851109 31.43452884 -0.07278255 34.10455894 -0.07808304 C43.42463345 -0.09658261 52.74465078 -0.10475382 62.06474304 -0.10317993 C70.74383297 -0.10197883 79.4226741 -0.12307517 88.10170108 -0.15466726 C95.56005117 -0.18084572 103.01832008 -0.19154656 110.47671574 -0.19026911 C114.92817285 -0.1897599 119.37940885 -0.19542023 123.83082008 -0.21662521 C128.01946898 -0.23603391 132.20768647 -0.23611428 136.39635086 -0.22159195 C137.92976832 -0.21950594 139.46321296 -0.22419239 140.99658394 -0.23631287 C150.70010202 -0.3080188 157.86632987 -0.10719912 165.15287781 7.01742554 C169.1495898 12.95539763 171.54823653 18.97909619 170.34037781 26.26742554 C168.19032844 33.77980041 164.18270675 38.24803221 157.64334679 42.3255949 C154.57285134 43.58131597 152.02870711 43.52240223 148.71162415 43.52812195 C148.04682081 43.5319475 147.38201747 43.53577304 146.69706857 43.53971452 C144.47083196 43.55002804 142.24485405 43.54605556 140.01860046 43.54208374 C138.42185223 43.54643117 136.82510608 43.55161442 135.22836304 43.55757141 C130.89153501 43.57097028 126.55479409 43.57153903 122.21794939 43.56900811 C118.59718383 43.56793887 114.97643593 43.57282065 111.35567415 43.57761353 C102.81280154 43.58871208 94.26997289 43.58914436 85.72709656 43.58309937 C76.91567662 43.57706016 68.10441639 43.58936842 59.29302371 43.61066943 C51.72687182 43.62828725 44.16077077 43.63428645 36.59459913 43.63103169 C32.07616611 43.62921876 27.55784697 43.63185585 23.03943253 43.64574623 C18.78929937 43.65832266 14.539415 43.65638227 10.28928566 43.64333534 C8.73084619 43.64096949 7.17238922 43.64370458 5.6139698 43.65195847 C3.48339136 43.66242751 1.35364748 43.65432494 -0.77690125 43.64164734 C-1.96819326 43.64181508 -3.15948528 43.64198282 -4.38687706 43.64215565 C-10.59813468 42.93096515 -14.69355462 39.9640845 -18.65962219 35.26742554 C-22.84353227 29.28457041 -23.67717726 23.45325258 -22.65962219 16.26742554 C-20.8623438 10.08861638 -17.0016705 5.75475021 -11.65962219 2.26742554 C-7.65593716 0.33953164 -4.42523398 0.01265238 0 0 Z " fill="#000000" transform="translate(235.6596221923828,340.7325744628906)"/>
<path d="M0 0 C0.66253778 -0.00438225 1.32507557 -0.00876451 2.00769025 -0.01327956 C4.23228732 -0.02665574 6.45684477 -0.03284376 8.68147278 -0.03897095 C10.27482787 -0.04687291 11.86818117 -0.05514192 13.46153259 -0.06375122 C18.69864698 -0.08996255 23.93576933 -0.10527892 29.17292786 -0.11953735 C30.97653521 -0.12489758 32.78014252 -0.13027509 34.58374977 -0.13566971 C42.08733903 -0.15729797 49.59092615 -0.17603392 57.09453869 -0.1872921 C67.84361411 -0.2035263 78.59232777 -0.23669174 89.34126681 -0.29369295 C96.90147473 -0.33241554 104.46158599 -0.35192759 112.02189046 -0.35721266 C116.53605111 -0.36086322 121.04982584 -0.37285268 125.56387901 -0.4053154 C129.81327837 -0.43543666 134.06205911 -0.44169361 138.31154251 -0.42993164 C139.86755113 -0.42971124 141.42358878 -0.43798891 142.97949791 -0.45558548 C152.35709649 -0.55583203 159.03422908 -0.093803 166.00906658 6.59668922 C170.39939356 11.38354856 172.02400981 16.48069633 171.81355286 22.94296265 C170.81737708 30.08012076 168.0018083 35.51372353 162.38386536 39.99765015 C157.88029844 42.76907594 154.10765345 43.40627996 148.84533691 43.42132568 C148.18925739 43.4258568 147.53317786 43.43038791 146.85721713 43.43505633 C144.66640192 43.44768151 142.4758359 43.44608121 140.2849884 43.44442749 C138.71104107 43.45041396 137.13709667 43.45721978 135.56315613 43.46478271 C131.29237438 43.48243873 127.02167279 43.48713795 122.75085807 43.48841429 C120.08082291 43.48983677 117.41080808 43.49410823 114.74077797 43.49940872 C105.42070346 43.51790829 96.10068613 43.5260795 86.78059387 43.52450562 C78.10150394 43.52330451 69.42266282 43.54440085 60.74363583 43.57599294 C53.28528575 43.6021714 45.82701683 43.61287224 38.36862117 43.6115948 C33.91716406 43.61108559 29.46592806 43.61674592 25.01451683 43.6379509 C20.82586793 43.65735959 16.63765044 43.65743996 12.44898605 43.64291763 C10.9155686 43.64083162 9.38212395 43.64551807 7.84875298 43.65763855 C-1.21665957 43.72462909 -8.34090638 43.60157993 -15.51847839 37.4078064 C-15.96449402 36.84964233 -16.41050964 36.29147827 -16.87004089 35.71640015 C-17.33152527 35.16081421 -17.79300964 34.60522827 -18.26847839 34.0328064 C-21.97050102 28.36187365 -22.34223345 22.74611722 -21.49504089 16.15390015 C-19.23776352 9.02936843 -15.93087398 4.84854507 -9.49504089 1.15390015 C-6.12211099 0.02959018 -3.55655793 0.0166699 0 0 Z " fill="#000000" transform="translate(234.4950408935547,127.84609985351563)"/>
<path d="M0 0 C6.9510588 5.88576244 10.50081615 13.05836328 11.35546875 22.05859375 C11.6990564 32.28863891 9.89286686 39.56514945 3.4140625 47.5390625 C-2.27938421 53.56302766 -9.56799089 57.28080404 -17.84375 57.96484375 C-28.11239425 58.1999091 -36.05614566 56.03536324 -44.140625 49.5546875 C-50.7705457 42.8963122 -53.86782933 34.61565306 -54.2734375 25.3515625 C-53.98229308 15.40127372 -50.15429101 7.99154847 -43.26171875 1.00390625 C-30.73748578 -10.45084166 -13.38216179 -9.59921853 0 0 Z " fill="#000000" transform="translate(159.9609375,337.2734375)"/>
<path d="M0 0 C6.48588141 5.28717065 9.87441504 11.45137013 12.4921875 19.3046875 C13.41826844 30.97937996 11.72616088 40.24576616 4.3203125 49.484375 C-2.3380628 56.1142957 -10.61872194 59.21157933 -19.8828125 59.6171875 C-29.83310128 59.32604308 -37.24282653 55.49804101 -44.23046875 48.60546875 C-50.5295305 41.71828822 -52.87238354 34.02582132 -52.71875 24.76171875 C-51.93444785 15.6260511 -48.10630578 7.28094242 -41.140625 1.2578125 C-28.74239513 -7.8618581 -12.98695483 -8.7793433 0 0 Z " fill="#000000" transform="translate(158.5078125,122.6953125)"/>
<path d="M0 0 C8.47839953 5.74835488 14.15787045 12.35692951 16.953125 22.32421875 C17.94613101 32.06953351 17.13484193 40.45532395 11.375 48.5390625 C6.23738933 54.75279433 0.79725423 59.1874667 -7.046875 61.32421875 C-18.4614738 62.35105504 -28.14156522 61.49044455 -37.359375 54.13671875 C-44.29723199 47.59130619 -48.00408464 39.01573584 -48.359375 29.51171875 C-48.09388831 19.77720672 -44.92373986 12.2540845 -38.046875 5.32421875 C-27.73456772 -3.05116821 -12.26833255 -6.67266179 0 0 Z " fill="#000000" transform="translate(154.046875,226.67578125)"/>
</svg>
