<?xml version="1.0" standalone="no"?>
<!DOCTYPE svg PUBLIC "-//W3C//DTD SVG 20010904//EN"
 "http://www.w3.org/TR/2001/REC-SVG-20010904/DTD/svg10.dtd">
<svg version="1.0" xmlns="http://www.w3.org/2000/svg"
 width="512.000000pt" height="512.000000pt" viewBox="0 0 512.000000 512.000000"
 preserveAspectRatio="xMidYMid meet">

<g transform="translate(0.000000,512.000000) scale(0.100000,-0.100000)"
fill="#000000" stroke="none">
<path d="M3920 4744 c-407 -34 -784 -107 -1270 -245 -958 -273 -1831 -657
-2131 -938 -154 -143 -183 -281 -97 -461 42 -88 173 -217 288 -284 233 -137
573 -243 1165 -365 442 -91 506 -114 543 -193 12 -24 44 -146 72 -273 145
-648 200 -864 275 -1085 112 -326 244 -486 428 -520 198 -37 374 134 622 601
286 539 595 1373 774 2085 149 595 192 1042 126 1298 -52 200 -176 311 -398
357 -88 18 -307 31 -397 23z m334 -336 c123 -26 148 -59 167 -225 58 -525
-365 -2015 -841 -2958 -141 -279 -302 -525 -345 -525 -20 0 -71 71 -105 145
-75 162 -144 403 -255 890 -128 562 -135 590 -166 655 l-30 64 335 335 c362
363 358 359 341 448 -9 49 -69 109 -118 118 -90 17 -84 22 -463 -357 l-351
-350 -66 21 c-37 11 -153 39 -259 61 -717 152 -918 208 -1153 325 -151 75
-245 160 -245 223 0 49 210 191 490 330 788 394 1975 753 2684 812 116 10 307
4 380 -12z"/>
</g>
</svg>
