<?xml version="1.0" standalone="no"?>
<!DOCTYPE svg PUBLIC "-//W3C//DTD SVG 20010904//EN"
 "http://www.w3.org/TR/2001/REC-SVG-20010904/DTD/svg10.dtd">
<svg version="1.0" xmlns="http://www.w3.org/2000/svg"
 width="512.000000pt" height="512.000000pt" viewBox="0 0 512.000000 512.000000"
 preserveAspectRatio="xMidYMid meet">

<g transform="translate(0.000000,512.000000) scale(0.100000,-0.100000)"
fill="#000000" stroke="none">
<path d="M1175 4844 c-410 -72 -779 -329 -984 -686 -271 -473 -252 -1012 55
-1620 310 -611 932 -1279 1782 -1915 171 -128 516 -363 533 -363 13 0 300 193
450 304 l114 84 65 -62 c329 -315 843 -395 1266 -197 228 107 433 308 548 539
67 133 116 343 116 497 0 300 -130 616 -338 819 l-50 49 37 61 c292 478 408
976 321 1383 -92 431 -389 809 -781 992 -189 89 -328 121 -551 128 -182 6
-296 -7 -458 -53 -116 -33 -327 -140 -430 -218 -82 -61 -210 -187 -278 -271
l-32 -40 -32 40 c-68 84 -196 210 -278 271 -103 78 -314 185 -430 218 -199 56
-461 72 -645 40z m401 -245 c242 -33 471 -148 647 -322 100 -99 180 -218 267
-395 35 -73 67 -132 70 -132 3 0 35 59 70 132 151 307 315 484 565 608 183 90
360 127 575 117 563 -25 1025 -459 1091 -1028 34 -294 -59 -663 -255 -1007
-82 -145 -73 -138 -126 -108 -66 36 -208 83 -307 102 -131 24 -364 15 -496
-19 -432 -114 -766 -477 -842 -915 -22 -124 -19 -303 6 -425 20 -100 73 -251
110 -311 10 -17 19 -36 19 -42 0 -10 -221 -172 -353 -259 l-58 -38 -100 68
c-449 303 -1024 793 -1353 1153 -528 578 -796 1066 -847 1547 -58 547 270
1053 798 1231 149 50 349 67 519 43z m2570 -2285 c377 -77 660 -383 714 -774
38 -270 -68 -562 -272 -756 -278 -264 -675 -326 -1015 -159 -409 201 -604 675
-455 1105 46 133 122 248 228 351 132 126 269 198 444 234 92 19 262 18 356
-1z"/>
<path d="M3450 1435 l0 -125 520 0 520 0 0 125 0 125 -520 0 -520 0 0 -125z"/>
</g>
</svg>
